<svg viewBox="0 0 1074 463" fill="none" xmlns="http://www.w3.org/2000/svg">
    <path opacity="0.4"
        d="M195.273 297.544C153.93 287.651 135.928 254.562 97.6364 251.466C59.3446 248.37 26.85 277.705 0 305.876V463H1074V0C1058.9 94.3483 1021.98 331.109 976.364 331.109C930.749 331.109 919.613 158.434 878.727 134.638C837.842 110.842 818.925 222.52 781.091 231.037C743.257 239.554 713.203 201.158 683.455 189.095C653.706 177.032 621.211 157.706 585.818 181.212C550.425 204.718 531.966 359.592 488.182 385.203C444.398 410.814 429.6 331.109 390.546 318.626C351.491 306.142 333.947 311.528 292.909 307.437C251.871 303.346 236.616 307.437 195.273 297.544Z"
        fill="url(#paint0_linear_1132_14552)" />
    <defs>
        <linearGradient id="paint0_linear_1132_14552" x1="537" y1="0" x2="537" y2="463"
            gradientUnits="userSpaceOnUse">
            <stop stop-color="white" stop-opacity="0.5" />
            <stop offset="1" stop-color="white" stop-opacity="0" />
        </linearGradient>
    </defs>
</svg>
