<svg viewBox="0 0 1074 308" fill="none" xmlns="http://www.w3.org/2000/svg">
    <path
        d="M195.273 197.934C153.93 191.353 135.928 169.342 97.6364 167.282C59.3446 165.222 26.85 184.736 0 203.477V308H1074V0C1058.9 62.763 1021.98 220.263 976.364 220.263C930.749 220.263 919.613 105.395 878.727 89.5647C837.842 73.7348 818.925 148.026 781.091 153.692C743.257 159.358 713.203 133.816 683.455 125.791C653.706 117.766 621.211 104.91 585.818 120.547C550.425 136.184 531.966 239.21 488.182 256.247C444.398 273.285 429.6 220.263 390.546 211.958C351.491 203.654 333.947 207.236 292.909 204.515C251.871 201.794 236.616 204.515 195.273 197.934Z"
        fill="url(#paint0_linear_1132_14553)" />
    <defs>
        <linearGradient id="paint0_linear_1132_14553" x1="537" y1="0" x2="537" y2="308"
            gradientUnits="userSpaceOnUse">
            <stop stop-color="white" stop-opacity="0.5" />
            <stop offset="1" stop-color="white" stop-opacity="0" />
        </linearGradient>
    </defs>
</svg>